# xmcd CD database file
#
# Track frame offsets:
#	150
#	24544
#	47953
#	87817
#
# Disc length: 1493 seconds
#
# Revision: 0
# Processed by: cddbd v1.5.1PL0 Copyright (c) Steve Scherf et al.
# Submitted via: CDex 1.50
#
DISCID=2905d304
DTITLE=HONEY-POT - Whitepages
DYEAR=2004
DGENRE=Pop
TTITLE0=空の青
TTITLE1=ショートヘア
TTITLE2=Fall'n in...
TTITLE3=空の青〜Instrumental version〜
EXTD=YEAR: 2004
EXTT0=
EXTT1=
EXTT2=
EXTT3=
PLAYORDER=
